# This file uses centimeters as units for non-parametric coordinates.

mtllib PieceNew03.mtl
g default
v -5.439140 -0.000000 0.000000
v -5.172929 -0.000000 1.680786
v -5.109242 0.850868 -1.298250
v -5.344102 0.304394 -0.464253
v -5.109242 0.850868 1.660093
v -4.184988 1.851105 -3.040572
v -4.919748 1.680786 -1.598523
v -4.420645 1.089187 2.744652
v -4.184987 1.680786 3.040571
v -3.814583 2.469317 -3.009835
v -4.292677 2.699865 -1.907647
v -3.920746 2.469317 2.848589
v -3.892095 3.197045 -1.359785
v -4.107463 3.522984 -0.339816
v -3.838826 3.543369 1.656327
v -3.559963 3.197045 2.586465
v -3.846052 3.846051 0.000000
v -3.657814 3.846052 1.188495
v -2.887352 4.614550 0.000000
v -2.770901 4.523715 0.987942
v -5.475041 0.040066 0.080632
v -5.197112 0.250834 1.531241
v -5.301943 0.930542 1.739755
v -5.531836 0.384068 -0.463283
v -5.243995 0.970151 -1.376943
v -5.664994 1.839368 0.000000
v -5.161091 1.838306 -1.746484
v -4.882238 1.246707 2.389583
v -4.363454 2.046864 -2.711414
v -4.553120 2.931592 -2.050856
v -4.210178 2.399478 -2.582175
v -5.467297 2.702404 0.041850
v -4.888462 2.702404 1.598341
v -4.329576 1.876544 2.766531
v -4.330956 2.701044 2.766604
v -4.365213 3.823506 -0.345762
v -4.405498 3.464741 -1.177163
v -4.003308 3.843890 1.789892
v -4.051108 2.987055 2.441455
v -3.667082 4.208254 1.412964
v -3.978151 3.991309 0.057358
v -3.146935 4.611380 0.873731
v -3.296045 4.498787 0.052899
vt -0.205078 0.447266
vt -0.080078 0.470703
vt -0.064453 0.552734
vt -0.248047 0.486328
vt -0.326172 0.556641
vt -0.208984 0.650391
vt -0.357422 0.658203
vt -0.001953 0.591797
vt -0.462891 0.689453
vt -0.400391 0.794922
vt -0.458984 0.740234
vt -0.205078 0.748047
vt -0.068359 0.763672
vt 0.048828 0.673828
vt 0.048828 0.763672
vt -0.248047 0.923828
vt -0.330078 0.873047
vt -0.021484 0.923828
vt 0.037109 0.814453
vt -0.044922 0.994141
vt -0.205078 0.966797
vt -0.087891 1.083984
vt -0.205078 1.072266
vt -0.208984 0.443359
vt -0.068359 0.443359
vt -0.068359 0.544922
vt -0.248047 0.478516
vt -0.322266 0.544922
vt -0.353516 0.646484
vt 0.041016 0.576172
vt -0.494141 0.666016
vt -0.400391 0.783203
vt -0.509766 0.748047
vt 0.076172 0.646484
vt 0.076172 0.751953
vt -0.248047 0.912109
vt -0.361328 0.876953
vt 0.076172 0.857422
vt -0.025391 0.912109
vt -0.068359 0.966797
vt -0.212891 0.966797
vt -0.056641 1.111328
vt -0.212891 1.123047
vn -0.982035 -0.103312 0.157906
vn -0.982035 -0.103312 0.157906
vn -0.978446 0.002277 0.206490
vn -0.999921 -0.011068 -0.006022
vn -0.957858 -0.009134 -0.287098
vn -0.986866 0.155787 0.042726
vn -0.910322 0.232641 -0.342332
vn -0.921126 0.139133 0.363550
vn -0.723967 0.306292 -0.618108
vn -0.827819 0.421319 -0.370415
vn -0.723967 0.306292 -0.618108
vn -0.886912 0.458713 0.054489
vn -0.840085 0.440040 0.317209
vn -0.832076 0.179341 0.524868
vn -0.787688 0.340400 0.513493
vn -0.738961 0.673173 0.027823
vn -0.736536 0.629291 -0.248006
vn -0.707061 0.674544 0.212261
vn -0.665120 0.586116 0.462692
vn -0.596817 0.801471 0.038120
vn -0.596457 0.801637 0.040218
vn -0.601933 0.798521 0.006366
vn -0.601933 0.798521 0.006366
vn -0.971001 -0.158060 0.179369
vn -0.971001 -0.158060 0.179369
vn -0.971001 -0.158060 0.179369
vn -0.971001 -0.158060 0.179369
vn -0.465565 -0.120111 0.876825
vn -0.496320 -0.579073 0.646793
vn -0.490710 -0.627838 0.604171
vn -0.465565 -0.120111 0.876825
vn -0.543766 -0.696320 -0.468462
vn -0.543766 -0.696320 -0.468462
vn -0.543766 -0.696320 -0.468462
vn -0.543766 -0.696320 -0.468462
vn -0.321432 -0.747895 -0.580806
vn -0.321432 -0.747895 -0.580806
vn -0.321432 -0.747895 -0.580806
vn -0.321432 -0.747895 -0.580806
vn 0.247787 -0.389634 -0.887010
vn 0.247787 -0.389634 -0.887010
vn 0.247787 -0.389634 -0.887010
vn 0.247787 -0.389634 -0.887010
vn -0.477114 -0.701648 0.529200
vn -0.477114 -0.701648 0.529200
vn -0.671646 -0.535578 -0.511906
vn -0.671646 -0.535578 -0.511906
vn -0.671646 -0.535578 -0.511906
vn -0.671646 -0.535578 -0.511906
vn 0.051843 0.914624 -0.400968
vn 0.051843 0.914624 -0.400968
vn 0.051843 0.914624 -0.400968
vn 0.051843 0.914624 -0.400968
vn -0.670043 0.457732 -0.584400
vn -0.670043 0.457732 -0.584400
vn -0.670043 0.457732 -0.584400
vn -0.670044 0.457732 -0.584400
vn -0.701305 0.061381 0.710214
vn -0.701305 0.061381 0.710214
vn -0.701305 0.061381 0.710214
vn -0.701305 0.061381 0.710214
vn -0.432235 0.175669 0.884485
vn -0.329537 0.369914 0.868659
vn -0.295848 0.424336 0.855811
vn -0.432235 0.175669 0.884485
vn 0.537399 0.806237 -0.247354
vn 0.537399 0.806237 -0.247354
vn 0.537399 0.806237 -0.247354
vn 0.537399 0.806237 -0.247354
vn 0.396250 0.664021 -0.634084
vn 0.396250 0.664021 -0.634084
vn 0.396250 0.664021 -0.634084
vn 0.396250 0.664021 -0.634084
vn -0.186162 0.577944 0.794559
vn -0.186162 0.577944 0.794559
vn 0.099962 0.798900 0.593099
vn 0.099962 0.798900 0.593099
vn 0.099962 0.798900 0.593099
vn 0.099962 0.798900 0.593099
vn 0.866410 -0.041670 0.497591
vn 0.676566 0.034086 0.735592
vn 0.618841 0.052475 0.783761
vn 0.866410 -0.041670 0.497591
vn 0.147809 0.387180 -0.910079
vn 0.467253 0.493252 -0.733742
vn 0.467253 0.493252 -0.733742
vn 0.138654 0.383445 -0.913096
vn 0.393027 0.112962 0.912562
vn 0.393027 0.112962 0.912562
vn -0.035248 0.999355 -0.006846
vn -0.035248 0.999355 -0.006846
vn -0.035248 0.999355 -0.006846
vn -0.035248 0.999355 -0.006846
vn -0.182254 0.231025 -0.955725
vn -0.182254 0.231025 -0.955725
vn 0.898731 -0.432783 -0.070577
vn 0.898731 -0.432783 -0.070577
vn 0.898731 -0.432783 -0.070577
vn 0.898731 -0.432783 -0.070577
vn 0.898731 -0.432783 -0.070577
vn 0.898731 -0.432783 -0.070577
vn 0.898731 -0.432783 -0.070577
vn 0.898731 -0.432783 -0.070577
vn 0.898731 -0.432783 -0.070577
vn 0.898731 -0.432783 -0.070577
vn 0.898731 -0.432783 -0.070577
vn 0.898731 -0.432783 -0.070577
vn 0.898731 -0.432783 -0.070577
vn 0.898731 -0.432783 -0.070577
vn 0.898731 -0.432783 -0.070577
vn 0.898731 -0.432783 -0.070577
vn 0.898731 -0.432783 -0.070577
vn 0.898731 -0.432783 -0.070577
vn 0.898731 -0.432783 -0.070577
vn 0.898731 -0.432783 -0.070577
s 1
g textureEditorIsolateSelectSet pSphere1
usemtl lambert2SG
f 21/1/1 22/2/2 23/3/3 24/4/4
f 25/5/5 24/4/4 26/6/6 27/7/7
f 24/4/4 23/3/3 28/8/8 26/6/6
f 29/9/9 27/7/7 30/10/10 31/11/11
f 27/7/7 26/6/6 32/12/12 30/10/10
f 26/6/6 28/8/8 33/13/13 32/12/12
f 28/8/8 34/14/14 35/15/15 33/13/13
f 30/10/10 32/12/12 36/16/16 37/17/17
f 32/12/12 33/13/13 38/18/18 36/16/16
f 33/13/13 35/15/15 39/19/19 38/18/18
f 36/16/16 38/18/18 40/20/20 41/21/21
f 41/21/21 40/20/20 42/22/22 43/23/23
s off
f 1/24/24 2/25/25 22/2/26 21/1/27
s 2
f 2/25/28 5/26/29 23/3/30 22/2/31
s off
f 4/27/32 1/24/33 21/1/34 24/4/35
f 3/28/36 4/27/37 24/4/38 25/5/39
f 7/29/40 3/28/41 25/5/42 27/7/43
s 2
f 5/26/29 8/30/44 28/8/45 23/3/30
s off
f 6/31/46 7/29/47 27/7/48 29/9/49
f 11/32/50 10/33/51 31/11/52 30/10/53
f 10/33/54 6/31/55 29/9/56 31/11/57
f 8/30/58 9/34/59 34/14/60 28/8/61
s 3
f 9/34/62 12/35/63 35/15/64 34/14/65
s off
f 14/36/66 13/37/67 37/17/68 36/16/69
f 13/37/70 11/32/71 30/10/72 37/17/73
s 3
f 12/35/63 16/38/74 39/19/75 35/15/64
s off
f 16/38/76 15/39/77 38/18/78 39/19/79
s 4
f 15/39/80 18/40/81 40/20/82 38/18/83
s 5
f 17/41/84 14/36/85 36/16/86 41/21/87
s 4
f 18/40/81 20/42/88 42/22/89 40/20/82
s off
f 20/42/90 19/43/91 43/23/92 42/22/93
s 5
f 19/43/94 17/41/84 41/21/87 43/23/95
s off
f 2/25/96 1/24/97 4/27/98 3/28/99 7/29/100 6/31/101 10/33/102 11/32/103 13/37/104 14/36/105 17/41/106 19/43/107 20/42/108 18/40/109 15/39/110 16/38/111 12/35/112 9/34/113 8/30/114 5/26/115
