# This file uses centimeters as units for non-parametric coordinates.

mtllib PieceNew05.mtl
g default
v 2.512889 -4.400355 1.994763
v 3.040571 -4.400355 0.745883
v 3.657815 -3.846052 -1.188496
v 3.111523 -3.846052 -2.260654
v 3.159834 -3.846052 2.151339
v 3.657813 -3.846052 1.188495
v 3.471877 -4.067002 -0.458645
v 4.184989 -3.197045 -1.359785
v 3.559965 -3.197045 -2.586465
v 4.184987 -3.197045 1.359784
v 4.400355 -3.197045 0.000000
v 3.226534 -2.821167 -3.195586
v 2.848589 -2.469317 -3.920748
v 4.256568 -2.469317 2.188706
v 5.068094 -1.761302 1.032602
v 4.919750 -1.397248 -0.971059
v 4.073110 -1.447983 -3.275090
v 3.040573 -1.680786 -4.184989
v 5.172929 -1.680786 0.000000
v 5.109243 -0.594827 -1.660094
v 4.346183 -0.620741 -3.157686
v 2.815753 -4.386739 2.129935
v 3.318171 -4.348810 1.129386
v 3.935413 -4.206349 1.329940
v 3.462698 -4.089032 1.553719
v 3.960086 -3.766349 -1.590104
v 3.458052 -3.887133 -2.394999
v 3.903705 -3.473929 -2.761610
v 4.838991 -3.473929 -1.462836
v 4.017412 -4.153179 1.245451
v 4.205651 -4.153179 0.056955
v 4.490832 -3.473929 -0.014862
v 4.566027 -3.473928 1.420135
v 3.581786 -3.034666 -3.304392
v 5.208542 -2.684070 -1.768534
v 5.265261 -2.293633 0.378284
v 4.600132 -2.715955 1.931402
v 4.435453 -1.593112 -3.536161
v 5.343941 -1.542378 -1.110747
v 3.160322 -2.361934 -3.811594
v 3.142048 -1.861146 -4.162624
v 5.608356 -1.861146 -0.068964
v 4.542099 -0.960768 -2.992004
v 5.160937 -0.960768 -2.030663
vt 0.919922 -0.107422
vt 1.064453 -0.107422
vt 1.064453 -0.044922
vt 1.021484 -0.064453
vt 1.380859 -0.001953
vt 1.482422 -0.017578
vt 1.486328 0.056641
vt 1.341797 0.072266
vt 1.076172 -0.037109
vt 1.205078 -0.037109
vt 1.212891 0.037109
vt 1.076172 0.056641
vt 1.541016 0.099609
vt 1.357422 0.166016
vt 1.177734 0.189453
vt 1.033203 0.130859
vt 1.509766 0.275391
vt 1.302734 0.271484
vt 1.603516 0.166016
vt 1.623047 0.228516
vt 1.216797 0.244141
vt 1.470703 0.333984
vt 1.376953 0.337891
vt 0.912109 -0.138672
vt 1.103516 -0.142578
vt 1.072266 -0.044922
vt 0.943359 -0.048828
vt 1.349609 -0.041016
vt 1.490234 -0.041016
vt 1.490234 0.052734
vt 1.349609 0.052734
vt 1.271484 -0.087891
vt 1.208984 0.052734
vt 1.068359 0.052734
vt 1.560547 0.095703
vt 1.119141 0.236328
vt 0.998047 0.142578
vt 1.630859 0.150391
vt 1.630859 0.248047
vt 1.513672 0.271484
vt 1.298828 0.271484
vt 1.208984 0.244141
vt 1.490234 0.369141
vt 1.349609 0.373047
vn 0.402179 -0.835468 0.374494
vn 0.402179 -0.835468 0.374494
vn 0.402179 -0.835468 0.374494
vn 0.402179 -0.835468 0.374494
vn 0.422661 -0.874320 -0.238581
vn 0.422661 -0.874320 -0.238582
vn 0.645268 -0.576310 -0.501493
vn 0.818015 -0.559119 -0.135044
vn 0.850463 -0.524757 0.036645
vn 0.850463 -0.524757 0.036645
vn 0.868088 -0.485598 0.103043
vn 0.885235 -0.455390 0.094759
vn 0.736256 -0.318149 -0.597250
vn 0.870485 -0.346744 -0.349320
vn 0.901513 -0.426426 0.073720
vn 0.896176 -0.428154 0.116416
vn 0.794378 -0.248314 -0.554349
vn 0.908209 -0.238676 -0.343787
vn 0.427864 -0.423593 -0.798437
vn 0.427864 -0.423593 -0.798437
vn 0.956177 -0.278601 -0.090037
vn 0.909779 -0.069448 -0.409243
vn 0.909779 -0.069448 -0.409243
vn 0.089960 -0.995646 0.024407
vn 0.089960 -0.995646 0.024407
vn 0.089960 -0.995646 0.024407
vn 0.089960 -0.995646 0.024407
vn 0.566343 -0.291983 -0.770715
vn 0.566343 -0.291983 -0.770715
vn 0.566343 -0.291983 -0.770715
vn 0.566343 -0.291983 -0.770715
vn 0.756280 0.280870 0.590892
vn 0.756280 0.280869 0.590892
vn 0.756280 0.280869 0.590892
vn 0.756280 0.280869 0.590892
vn 0.485539 -0.340854 0.805028
vn 0.485539 -0.340854 0.805028
vn 0.485539 -0.340854 0.805028
vn 0.485539 -0.340854 0.805028
vn 0.076862 -0.996816 0.021215
vn 0.076862 -0.996816 0.021215
vn 0.076862 -0.996816 0.021215
vn 0.076862 -0.996816 0.021215
vn -0.467752 -0.171491 -0.867063
vn -0.616255 -0.562826 -0.550870
vn -0.609485 -0.532340 -0.587488
vn -0.467752 -0.171491 -0.867063
vn 0.336565 -0.464375 0.819195
vn 0.336565 -0.464375 0.819195
vn 0.336565 -0.464375 0.819195
vn 0.336565 -0.464375 0.819195
vn -0.370710 -0.925965 0.071850
vn -0.370710 -0.925965 0.071850
vn -0.370710 -0.925965 0.071850
vn -0.370710 -0.925965 0.071850
vn 0.465551 -0.146792 -0.872763
vn 0.465551 -0.146792 -0.872763
vn 0.465551 -0.146792 -0.872763
vn 0.465551 -0.146792 -0.872763
vn -0.251584 -0.380068 0.890087
vn -0.216051 -0.078511 0.973220
vn -0.216051 -0.078511 0.973220
vn -0.247310 -0.331460 0.910479
vn -0.614669 -0.765127 -0.191737
vn -0.614669 -0.765127 -0.191737
vn 0.871723 0.032975 0.488888
vn 0.871723 0.032975 0.488888
vn 0.871723 0.032975 0.488888
vn 0.871723 0.032975 0.488888
vn -0.262250 -0.636014 0.725749
vn -0.262250 -0.636014 0.725749
vn -0.599475 -0.799891 -0.028352
vn -0.599475 -0.799891 -0.028352
vn -0.599475 -0.799891 -0.028352
vn -0.599475 -0.799891 -0.028352
vn -0.127248 -0.801717 -0.584002
vn -0.127248 -0.801717 -0.584002
vn -0.127248 -0.801717 -0.584002
vn -0.127248 -0.801717 -0.584002
vn 0.199680 -0.443790 -0.873601
vn 0.199680 -0.443790 -0.873601
vn 0.199680 -0.443790 -0.873601
vn 0.199680 -0.443790 -0.873601
vn 0.230258 0.767175 -0.598685
vn 0.230258 0.767175 -0.598685
vn 0.230258 0.767175 -0.598684
vn 0.230258 0.767175 -0.598685
vn 0.385111 0.906649 0.172268
vn 0.385111 0.906649 0.172268
vn 0.385111 0.906649 0.172268
vn 0.385111 0.906649 0.172268
vn 0.848726 0.364419 0.383226
vn 0.848726 0.364419 0.383226
vn 0.848727 0.364419 0.383226
vn 0.848726 0.364419 0.383226
vn 0.166203 0.370891 -0.913683
vn 0.166203 0.370891 -0.913683
vn 0.166203 0.370891 -0.913683
vn 0.166203 0.370891 -0.913683
vn 0.793645 0.409058 -0.450333
vn 0.793645 0.409058 -0.450333
vn 0.793645 0.409058 -0.450332
vn 0.793645 0.409058 -0.450333
vn 0.834399 0.416171 0.361358
vn 0.834399 0.416171 0.361358
vn 0.834399 0.416171 0.361358
vn 0.834399 0.416171 0.361358
vn -0.563446 0.783744 -0.261292
vn -0.563446 0.783744 -0.261292
vn -0.563446 0.783744 -0.261292
vn -0.563447 0.783744 -0.261292
vn -0.708498 0.703275 -0.058612
vn -0.708498 0.703275 -0.058612
vn -0.708498 0.703275 -0.058612
vn -0.708498 0.703275 -0.058612
vn -0.853025 0.475859 -0.214259
vn -0.853025 0.475859 -0.214259
vn -0.853025 0.475859 -0.214259
vn -0.853025 0.475859 -0.214259
vn -0.671891 0.419825 0.610172
vn -0.671891 0.419825 0.610172
vn -0.671891 0.419825 0.610172
vn -0.671891 0.419825 0.610172
vn -0.681051 0.644789 0.347012
vn -0.681051 0.644789 0.347012
vn -0.681051 0.644789 0.347012
vn -0.681051 0.644789 0.347012
vn -0.858644 0.368641 0.356138
vn -0.858644 0.368641 0.356138
vn -0.858644 0.368641 0.356138
vn -0.858644 0.368641 0.356138
vn -0.876684 0.378820 0.296512
vn -0.876684 0.378820 0.296512
vn -0.876684 0.378820 0.296512
vn -0.876684 0.378820 0.296512
vn -0.876684 0.378820 0.296512
vn -0.876684 0.378820 0.296512
vn -0.876684 0.378820 0.296512
vn -0.876684 0.378820 0.296512
s off
g textureEditorIsolateSelectSet pSphere1
usemtl lambert2SG
f 22/1/1 23/2/2 24/3/3 25/4/4
s 1
f 26/5/5 27/6/6 28/7/7 29/8/8
f 30/9/9 31/10/10 32/11/11 33/12/12
f 29/8/8 28/7/7 34/13/13 35/14/14
f 33/12/12 32/11/11 36/15/15 37/16/16
f 32/11/11 29/8/8 35/14/14 36/15/15
f 35/14/14 34/13/13 38/17/17 39/18/18
f 34/13/13 40/19/19 41/20/20 38/17/17
f 36/15/15 35/14/14 39/18/18 42/21/21
f 39/18/18 38/17/17 43/22/22 44/23/23
s off
f 1/24/24 2/25/25 23/2/26 22/1/27
f 2/25/28 6/26/29 24/3/30 23/2/31
f 6/26/32 5/27/33 25/4/34 24/3/35
f 5/27/36 1/24/37 22/1/38 25/4/39
f 3/28/40 4/29/41 27/6/42 26/5/43
s 3
f 4/29/44 9/30/45 28/7/46 27/6/47
s off
f 8/31/48 3/28/49 26/5/50 29/8/51
f 6/26/52 7/32/53 31/10/54 30/9/55
f 7/32/56 11/33/57 32/11/58 31/10/59
s 4
f 10/34/60 6/26/61 30/9/62 33/12/63
s 3
f 9/30/45 12/35/64 34/13/65 28/7/46
s off
f 15/36/66 14/37/67 37/16/68 36/15/69
s 4
f 14/37/70 10/34/60 33/12/63 37/16/71
s off
f 11/33/72 8/31/73 29/8/74 32/11/75
f 12/35/76 13/38/77 40/19/78 34/13/79
f 13/38/80 18/39/81 41/20/82 40/19/83
f 18/39/84 17/40/85 38/17/86 41/20/87
f 16/41/88 19/42/89 42/21/90 39/18/91
f 19/42/92 15/36/93 36/15/94 42/21/95
f 17/40/96 21/43/97 43/22/98 38/17/99
f 21/43/100 20/44/101 44/23/102 43/22/103
f 20/44/104 16/41/105 39/18/106 44/23/107
f 2/25/108 1/24/109 5/27/110 6/26/111
f 11/33/112 7/32/113 6/26/114 10/34/115
f 11/33/116 10/34/117 14/37/118 15/36/119
f 13/38/120 12/35/121 17/40/122 18/39/123
f 3/28/124 8/31/125 9/30/126 4/29/127
f 16/41/128 20/44/129 21/43/130 17/40/131
f 8/31/132 11/33/133 15/36/134 19/42/135 16/41/136 17/40/137 12/35/138 9/30/139
