# This file uses centimeters as units for non-parametric coordinates.

mtllib PieceNew06.mtl
g default
v -1.997720 -4.846308 1.451428
v -1.451428 -4.846308 1.997720
v -2.586464 -4.400355 1.879176
v -1.327899 -4.400355 2.586464
v -0.987941 -4.400355 3.040571
v -3.111522 -3.846052 2.260653
v -1.188496 -3.846052 3.657813
v -4.184988 -3.197045 1.359785
v -3.855035 -3.197045 1.778985
v -2.178524 -2.857600 3.962370
v -1.359785 -3.197045 4.184987
v -4.609114 -2.469317 1.497592
v -4.384998 -2.105419 2.561735
v -2.848588 -2.469317 3.920746
v -4.184988 -1.680786 3.040571
v -3.040572 -1.680786 4.184987
v -2.210286 -4.921435 1.663994
v -1.663994 -4.734653 2.210286
v -1.518842 -4.500003 2.858903
v -2.757101 -4.209923 2.419366
v -2.498940 -3.906997 3.439496
v -3.464985 -3.769978 2.244561
v -1.157263 -4.368258 3.095132
v -1.372089 -3.857949 4.018135
v -2.525372 -3.159321 3.876831
v -4.226446 -3.528498 2.043807
v -1.482201 -3.383495 4.054619
v -4.619627 -2.880708 1.581245
v -4.170398 -2.360996 2.637716
v -4.638498 -2.483140 1.719051
v -3.207638 -2.724894 3.371317
v -3.165602 -1.951712 3.987732
v -4.158587 -2.013069 3.192406
vt 0.080078 -0.212891
vt 0.208984 -0.205078
vt 0.283203 -0.146484
vt 0.115234 -0.087891
vt 0.216797 -0.021484
vt 0.048828 -0.021484
vt 0.341797 -0.130859
vt 0.353516 -0.017578
vt 0.240234 0.064453
vt -0.005859 0.041016
vt 0.345703 0.025391
vt -0.060547 0.107422
vt 0.044922 0.158203
vt -0.048828 0.150391
vt 0.158203 0.107422
vt 0.197266 0.208984
vt 0.087891 0.208984
vt 0.072266 -0.240234
vt 0.216797 -0.240234
vt 0.287109 -0.169922
vt 0.072266 -0.142578
vt 0.076172 -0.048828
vt 0.361328 -0.142578
vt 0.361328 -0.048828
vt -0.013672 0.037109
vt 0.361328 0.048828
vt 0.275391 0.083984
vt -0.068359 0.048828
vt 0.029297 0.193359
vt -0.068359 0.142578
vt 0.216797 0.142578
vt 0.216797 0.240234
vt 0.076172 0.240234
vn -0.307404 -0.827550 0.469749
vn -0.307404 -0.827550 0.469749
vn -0.273815 -0.847475 0.454767
vn -0.395393 -0.833771 0.385343
vn -0.443674 -0.701869 0.557256
vn -0.553045 -0.651298 0.519569
vn -0.166672 -0.853455 0.493796
vn -0.256624 -0.663589 0.702704
vn -0.539576 -0.450590 0.711215
vn -0.706637 -0.358475 0.610048
vn -0.332099 -0.372993 0.866364
vn -0.863836 -0.196377 0.463922
vn -0.681197 -0.362203 0.636222
vn -0.863836 -0.196377 0.463922
vn -0.640106 -0.377413 0.669196
vn -0.552153 -0.589433 0.589657
vn -0.552153 -0.589433 0.589657
vn 0.042133 -0.990972 0.127277
vn 0.042133 -0.990972 0.127277
vn 0.042133 -0.990972 0.127277
vn 0.042133 -0.990972 0.127277
vn 0.416459 -0.831757 0.367072
vn 0.416459 -0.831757 0.367072
vn 0.416459 -0.831757 0.367072
vn 0.416459 -0.831757 0.367072
vn -0.795426 -0.503738 -0.336965
vn -0.822176 -0.449116 -0.349746
vn -0.822176 -0.449116 -0.349746
vn -0.682448 -0.673412 -0.284220
vn -0.468803 -0.754824 -0.458764
vn -0.075917 -0.662857 -0.744887
vn 0.184424 -0.982847 0.000152
vn 0.184424 -0.982847 0.000152
vn 0.184424 -0.982847 0.000152
vn 0.184424 -0.982847 0.000152
vn 0.618040 -0.558828 0.552936
vn 0.639286 -0.478467 0.601982
vn 0.663884 -0.303487 0.683486
vn 0.618040 -0.558828 0.552936
vn -0.035018 -0.644512 -0.763792
vn -0.035018 -0.644512 -0.763792
vn 0.666622 -0.194101 0.719681
vn 0.666622 -0.194101 0.719681
vn -0.256966 -0.173471 0.950724
vn -0.256966 -0.173471 0.950724
vn -0.256966 -0.173471 0.950724
vn -0.256966 -0.173471 0.950724
vn -0.246004 -0.866324 -0.434700
vn -0.246004 -0.866324 -0.434700
vn -0.246004 -0.866324 -0.434700
vn -0.246004 -0.866324 -0.434700
vn -0.904440 -0.215011 0.368454
vn -0.904440 -0.215011 0.368454
vn -0.904440 -0.215011 0.368454
vn -0.904440 -0.215011 0.368454
vn -0.725148 -0.119369 -0.678168
vn -0.725148 -0.119369 -0.678168
vn -0.725148 -0.119369 -0.678168
vn -0.725148 -0.119369 -0.678168
vn -0.504582 -0.288158 0.813856
vn -0.540212 -0.359270 0.760984
vn -0.532733 -0.343776 0.773313
vn -0.504582 -0.288158 0.813856
vn -0.577347 -0.442413 0.686252
vn -0.577347 -0.442413 0.686252
vn -0.671901 0.054241 0.738652
vn -0.671901 0.054241 0.738652
vn -0.671901 0.054241 0.738652
vn -0.671901 0.054241 0.738652
vn -0.904275 -0.231760 0.358572
vn -0.904275 -0.231760 0.358572
vn -0.904275 -0.231760 0.358572
vn -0.904275 -0.231760 0.358572
vn 0.535312 0.635998 -0.555831
vn 0.535312 0.635998 -0.555831
vn 0.535312 0.635998 -0.555831
vn 0.535312 0.635998 -0.555831
vn 0.535312 0.635998 -0.555831
vn 0.535312 0.635998 -0.555831
vn 0.535312 0.635998 -0.555831
vn 0.535312 0.635998 -0.555831
vn 0.535312 0.635998 -0.555831
vn 0.535312 0.635998 -0.555831
vn 0.535312 0.635998 -0.555831
vn 0.535312 0.635998 -0.555831
vn 0.535312 0.635998 -0.555831
vn 0.535312 0.635998 -0.555831
vn 0.535312 0.635998 -0.555831
vn 0.535312 0.635998 -0.555831
s 1
g textureEditorIsolateSelectSet pSphere1
usemtl lambert2SG
f 17/1/1 18/2/2 19/3/3 20/4/4
f 20/4/4 19/3/3 21/5/5 22/6/6
f 19/3/3 23/7/7 24/8/8 21/5/5
f 22/6/6 21/5/5 25/9/9 26/10/10
f 21/5/5 24/8/8 27/11/11 25/9/9
f 28/12/12 26/10/10 29/13/13 30/14/14
f 26/10/10 25/9/9 31/15/15 29/13/13
f 29/13/13 31/15/15 32/16/16 33/17/17
s off
f 1/18/18 2/19/19 18/2/20 17/1/21
f 2/19/22 4/20/23 19/3/24 18/2/25
s 2
f 3/21/26 1/18/27 17/1/28 20/4/29
f 6/22/30 3/21/26 20/4/29 22/6/31
s off
f 4/20/32 5/23/33 23/7/34 19/3/35
s 3
f 5/23/36 7/24/37 24/8/38 23/7/39
s 2
f 9/25/40 6/22/30 22/6/31 26/10/41
s 3
f 7/24/37 11/26/42 27/11/43 24/8/38
s off
f 11/26/44 10/27/45 25/9/46 27/11/47
f 8/28/48 9/25/49 26/10/50 28/12/51
f 13/29/52 12/30/53 30/14/54 29/13/55
f 12/30/56 8/28/57 28/12/58 30/14/59
s 4
f 10/27/60 14/31/61 31/15/62 25/9/63
f 14/31/61 16/32/64 32/16/65 31/15/62
s off
f 16/32/66 15/33/67 33/17/68 32/16/69
f 15/33/70 13/29/71 29/13/72 33/17/73
f 2/19/74 1/18/75 3/21/76 6/22/77 9/25/78 8/28/79 12/30/80 13/29/81 15/33/82 16/32/83 14/31/84 10/27/85 11/26/86 7/24/87 5/23/88 4/20/89
