# This file uses centimeters as units for non-parametric coordinates.

mtllib PieceNew02.mtl
g default
v 1.950456 -1.611522 4.721903
v 3.157684 -0.850868 4.346180
v -0.000000 -0.517327 5.439139
v 1.361206 -0.834358 5.172928
v 4.523067 -1.052040 2.812907
v 4.400355 -0.000000 3.197045
v -3.551299 0.850868 3.961915
v -1.660093 0.345919 5.264696
v -1.083602 -0.708745 5.218457
v 4.346180 0.850868 3.157685
v -3.040571 1.680786 4.184987
v -2.011764 2.343797 4.448351
v 3.872442 2.722151 2.735682
v 4.535841 1.680786 2.364232
v -1.497591 3.056092 4.250593
v -0.771316 2.782795 4.534475
v 3.305603 3.168786 2.802043
v -0.000000 3.197046 4.400356
v 1.359785 3.197045 4.184987
v 2.586464 3.875263 2.897219
v 2.244503 -0.949710 5.216127
v 3.451731 -0.612806 4.779266
v 4.172631 -0.225494 4.549084
v 1.878470 -0.223750 5.639149
v 0.101321 0.050347 5.755712
v 1.858411 0.951719 5.719603
v -1.082384 0.512294 5.489339
v 3.534908 0.951719 4.865384
v 4.858344 0.050347 3.511023
v 4.798663 0.950986 3.466156
v -3.444661 1.000758 4.454622
v -1.853024 1.000758 5.379876
v -2.161148 2.149342 4.924932
v -2.539269 1.830676 4.452948
v -0.035823 1.880061 5.219204
v 1.784286 1.880061 5.821474
v 4.232417 2.345642 3.621219
v 4.710706 1.830676 2.520037
v -0.774875 3.073983 4.863633
v -1.591651 2.715307 4.558225
v 1.676782 2.762215 5.160606
v 3.111233 2.760506 4.165144
v 1.529414 3.533432 4.222954
v 0.086942 3.533432 4.678219
v 2.838781 3.256130 3.510003
vt 0.685547 0.337891
vt 0.783203 0.380859
vt 0.837891 0.427734
vt 0.646484 0.423828
vt 0.509766 0.451172
vt 0.642578 0.548828
vt 0.416016 0.501953
vt 0.787109 0.548828
vt 0.927734 0.455078
vt 0.927734 0.548828
vt 0.205078 0.560547
vt 0.353516 0.560547
vt 0.314453 0.693359
vt 0.267578 0.666016
vt 0.498047 0.669922
vt 0.634766 0.646484
vt 0.892578 0.708984
vt 0.990234 0.658203
vt 0.431641 0.814453
vt 0.349609 0.783203
vt 0.646484 0.755859
vt 0.791016 0.767578
vt 0.662109 0.884766
vt 0.509766 0.873047
vt 0.810547 0.857422
vt 0.681641 0.248047
vt 0.787109 0.341797
vt 0.958984 0.318359
vt 0.619141 0.341797
vt 0.501953 0.380859
vt 0.408203 0.357422
vt 0.927734 0.443359
vt 0.927734 0.544922
vt 0.169922 0.544922
vt 0.365234 0.482422
vt 0.310547 0.736328
vt 0.216797 0.646484
vt 0.994141 0.646484
vt 0.935547 0.783203
vt 0.427734 0.802734
vt 0.349609 0.837891
vt 0.896484 0.857422
vt 0.646484 0.857422
vt 0.501953 0.857422
vt 0.833984 0.962891
vn 0.406135 -0.280128 0.869818
vn 0.406135 -0.280128 0.869818
vn 0.613602 0.050705 0.787986
vn 0.283022 -0.020368 0.958897
vn -0.027245 0.092981 0.995295
vn 0.237818 0.131510 0.962366
vn -0.094274 0.214164 0.972238
vn 0.582452 0.143621 0.800077
vn 0.759531 0.173015 0.627040
vn 0.796280 0.236416 0.556818
vn -0.579502 0.345309 0.738200
vn -0.182883 0.313273 0.931887
vn -0.274738 0.336602 0.900676
vn -0.579502 0.345309 0.738200
vn -0.159233 0.273302 0.948657
vn 0.185417 0.314665 0.930917
vn 0.710879 0.311000 0.630817
vn 0.814695 0.273949 0.511100
vn -0.131793 0.427195 0.894503
vn -0.197012 0.355933 0.913508
vn 0.186088 0.572987 0.798158
vn 0.468259 0.618904 0.630628
vn 0.256598 0.727343 0.636498
vn 0.082531 0.645213 0.759532
vn 0.393408 0.767237 0.506535
vn 0.489385 -0.760190 0.427334
vn 0.489385 -0.760190 0.427334
vn 0.489385 -0.760190 0.427334
vn 0.489385 -0.760190 0.427334
vn 0.418051 -0.811162 0.408961
vn 0.418051 -0.811162 0.408961
vn 0.418051 -0.811162 0.408961
vn 0.418051 -0.811162 0.408961
vn -0.112490 -0.551948 0.826256
vn -0.112490 -0.551948 0.826256
vn -0.112490 -0.551948 0.826256
vn -0.112490 -0.551948 0.826256
vn -0.002403 -0.552488 0.833517
vn -0.002403 -0.552488 0.833517
vn -0.002403 -0.552488 0.833518
vn -0.002403 -0.552488 0.833517
vn -0.234010 -0.291228 0.927591
vn -0.234010 -0.291228 0.927591
vn -0.234010 -0.291228 0.927591
vn -0.234010 -0.291228 0.927591
vn 0.932753 -0.346570 0.099303
vn 0.932753 -0.346570 0.099303
vn 0.932753 -0.346570 0.099303
vn 0.932753 -0.346570 0.099303
vn 0.564704 -0.002978 -0.825288
vn 0.627409 -0.309230 -0.714657
vn 0.624244 -0.280070 -0.729301
vn 0.564704 -0.002978 -0.825288
vn -0.504051 -0.554345 0.662295
vn -0.396034 -0.373073 0.839031
vn -0.470405 -0.495338 0.730314
vn -0.504051 -0.554345 0.662295
vn -0.651996 0.673395 0.348482
vn -0.651996 0.673395 0.348482
vn -0.651996 0.673395 0.348482
vn -0.651996 0.673395 0.348482
vn -0.733290 0.577823 0.358338
vn -0.733290 0.577823 0.358338
vn -0.733290 0.577823 0.358338
vn -0.733290 0.577823 0.358338
vn -0.297338 -0.221521 0.928719
vn -0.297338 -0.221521 0.928719
vn 0.621968 -0.576357 -0.530065
vn 0.621968 -0.576357 -0.530065
vn 0.688606 0.696397 -0.202122
vn 0.688606 0.696397 -0.202122
vn 0.688606 0.696397 -0.202122
vn 0.688606 0.696397 -0.202122
vn -0.079941 0.994664 0.065214
vn -0.079941 0.994664 0.065214
vn -0.079941 0.994664 0.065214
vn -0.079941 0.994664 0.065214
vn -0.676937 0.688640 0.259867
vn -0.676937 0.688640 0.259867
vn -0.676937 0.688640 0.259867
vn -0.676937 0.688640 0.259867
vn 0.510273 0.822981 0.249646
vn 0.562139 0.776699 0.284144
vn 0.542796 0.794868 0.271214
vn 0.510273 0.822981 0.249646
vn -0.109465 0.842094 -0.528106
vn -0.204340 0.478758 -0.853836
vn -0.204340 0.478758 -0.853836
vn 0.001525 0.993479 -0.114007
vn -0.464402 0.646826 -0.604936
vn -0.464402 0.646826 -0.604936
vn -0.464402 0.646826 -0.604936
vn -0.464402 0.646826 -0.604936
vn 0.642285 0.687576 0.338687
vn 0.642285 0.687576 0.338688
vn 0.114382 0.936116 0.332571
vn 0.114382 0.936116 0.332572
vn -0.277384 -0.247802 -0.928252
vn -0.277384 -0.247802 -0.928252
vn -0.277384 -0.247802 -0.928252
vn -0.277384 -0.247802 -0.928252
vn -0.277384 -0.247802 -0.928252
vn -0.277384 -0.247802 -0.928252
vn -0.277384 -0.247802 -0.928252
vn -0.277384 -0.247802 -0.928252
vn -0.277384 -0.247802 -0.928252
vn -0.277384 -0.247802 -0.928252
vn -0.277384 -0.247802 -0.928252
vn -0.277384 -0.247802 -0.928252
vn -0.277384 -0.247802 -0.928252
vn -0.277384 -0.247802 -0.928252
vn -0.277384 -0.247802 -0.928252
vn -0.277384 -0.247802 -0.928252
vn -0.277384 -0.247802 -0.928252
vn -0.277384 -0.247802 -0.928252
vn -0.277384 -0.247802 -0.928252
vn -0.277384 -0.247802 -0.928252
s 1
g textureEditorIsolateSelectSet pSphere1
usemtl lambert2SG
f 21/1/1 22/2/2 23/3/3 24/4/4
f 25/5/5 24/4/4 26/6/6 27/7/7
f 24/4/4 23/3/3 28/8/8 26/6/6
f 23/3/3 29/9/9 30/10/10 28/8/8
f 31/11/11 32/12/12 33/13/13 34/14/14
f 32/12/12 27/7/7 35/15/15 33/13/13
f 27/7/7 26/6/6 36/16/16 35/15/15
f 26/6/6 28/8/8 37/17/17 36/16/16
f 28/8/8 30/10/10 38/18/18 37/17/17
f 33/13/13 35/15/15 39/19/19 40/20/20
f 35/15/15 36/16/16 41/21/21 39/19/19
f 36/16/16 37/17/17 42/22/22 41/21/21
f 39/19/19 41/21/21 43/23/23 44/24/24
f 41/21/21 42/22/22 45/25/25 43/23/23
s off
f 1/26/26 2/27/27 22/2/28 21/1/29
f 2/27/30 5/28/31 23/3/32 22/2/33
f 4/29/34 1/26/35 21/1/36 24/4/37
f 3/30/38 4/29/39 24/4/40 25/5/41
f 9/31/42 3/30/43 25/5/44 27/7/45
f 5/28/46 6/32/47 29/9/48 23/3/49
s 3
f 6/32/50 10/33/51 30/10/52 29/9/53
s 4
f 7/34/54 8/35/55 32/12/56 31/11/57
s off
f 12/36/58 11/37/59 34/14/60 33/13/61
f 11/37/62 7/34/63 31/11/64 34/14/65
s 4
f 8/35/55 9/31/66 27/7/67 32/12/56
s 3
f 10/33/51 14/38/68 38/18/69 30/10/52
s off
f 14/38/70 13/39/71 37/17/72 38/18/73
f 16/40/74 15/41/75 40/20/76 39/19/77
f 15/41/78 12/36/79 33/13/80 40/20/81
s 5
f 13/39/82 17/42/83 42/22/84 37/17/85
s 6
f 19/43/86 18/44/87 44/24/88 43/23/89
s off
f 18/44/90 16/40/91 39/19/92 44/24/93
s 5
f 17/42/83 20/45/94 45/25/95 42/22/84
s 6
f 20/45/96 19/43/86 43/23/89 45/25/97
s off
f 2/27/98 1/26/99 4/29/100 3/30/101 9/31/102 8/35/103 7/34/104 11/37/105 12/36/106 15/41/107 16/40/108 18/44/109 19/43/110 20/45/111 17/42/112 13/39/113 14/38/114 10/33/115 6/32/116 5/28/117
